# xmcd
#
# Track frame offsets:
#	150
#	18038
#	34736
#	48682
#	66602
#	79416
#	95238
#	110389
#	126616
#	147336
#	164791
#	182014
#	203921
#
# Disc length: 2916
#
# Revision: 1
# Processed by: cddbd v1.5.1PL0 Copyright (c) Steve Scherf et al.
# Submitted via: VisiTrax 2.9.5.180 - For more info visit www.synapsa.com
# Normalized: r0:DSETVAR1
#
DISCID=cb0b620d
DTITLE=Various Artist - CDX 241 june 2000
DYEAR=2000
DGENRE=
TTITLE0=Jerry Kilgore - Cactus in a coffe can
TTITLE1=Tob Keith - Country comes to town
TTITLE2=Jessica Andrews - I do now
TTITLE3=Phil Vassar - Just another day in paradise
TTITLE4=South Sixty Five - Love bug (bite me)
TTITLE5=Georgia Middleman - No place like home
TTITLE6=Sawyer Brown - Perfect world
TTITLE7=Patty Loveless - That's the kind of mood I'm in
TTITLE8=Clay Walker - The chain of love
TTITLE9=Jennifer Day - What if it's me
TTITLE10=Wynonna - (Whitout your love) I'm going nowhere
TTITLE11=Michael Chain - In this bar in Bakersfield
TTITLE12=Crosscut/Wane Toups - Louisiana bound
EXTD=
EXTT0=
EXTT1=
EXTT2=
EXTT3=
EXTT4=
EXTT5=
EXTT6=
EXTT7=
EXTT8=
EXTT9=
EXTT10=
EXTT11=
EXTT12=
PLAYORDER=
